<svg width="32" height="32" viewBox="0 0 32 32" fill="none" xmlns="http://www.w3.org/2000/svg">
<path d="M9.975 8.90438H5.95831C5.44056 8.90438 5.02081 8.48463 5.02081 7.96688V3.9502C5.02081 3.43245 5.44056 3.0127 5.95831 3.0127H9.975C10.4928 3.0127 10.9125 3.43245 10.9125 3.9502V7.96688C10.9125 8.48463 10.4928 8.90438 9.975 8.90438Z" fill="#CBD7FF"/>
<path d="M31.0625 11.9835H4.95419C4.43644 11.9835 4.01669 12.4033 4.01669 12.921V28.0502C4.01669 28.5679 4.43644 28.9877 4.95419 28.9877H29.0029C30.6979 28.9877 32 27.6667 32 26.0419V12.921C32 12.4033 31.5802 11.9835 31.0625 11.9835Z" fill="#525263"/>
<path d="M32 26.0419V12.921C32 12.4033 31.5802 11.9835 31.0625 11.9835H19.0125V28.9877H29.0029C30.6979 28.9877 32 27.6667 32 26.0419Z" fill="#454554"/>
<path d="M4.95419 28.9877H2.94581C1.31862 28.9877 0 27.6715 0 26.0419V12.921C0 12.4033 0.41975 11.9835 0.9375 11.9835H6.9625C7.48025 11.9835 7.9 12.4033 7.9 12.921V26.0418C7.9 27.6688 6.58387 28.9877 4.95419 28.9877Z" fill="#616173"/>
<path d="M32 12.921H0V9.9752C0 8.3342 1.33125 7.02938 2.94581 7.02938H29.0541C30.6666 7.02938 31.9999 8.33232 31.9999 9.9752V12.921L32 12.921Z" fill="#E5E9F8"/>
<path d="M32 9.9752C32 8.33232 30.6666 7.02938 29.0542 7.02938H19.0125V12.9211L32 12.921V9.9752Z" fill="#CBD7FF"/>
<path d="M27.8628 21.4492C28.6549 16.5585 25.3323 11.9516 20.4416 11.1595C15.5508 10.3674 10.944 13.6899 10.1518 18.5806C9.35972 23.4713 12.6823 28.0782 17.573 28.8703C22.4638 29.6625 27.0707 26.3399 27.8628 21.4492Z" fill="#FAFAF0"/>
<path d="M27.9833 20.0169C27.9833 15.0703 23.959 11.0461 19.0125 11.0461V28.9877C23.9591 28.9877 27.9833 24.9634 27.9833 20.0169Z" fill="#E5E9F8"/>
<path d="M23.8978 20.807C24.3352 18.1061 22.5003 15.5619 19.7994 15.1245C17.0985 14.687 14.5543 16.5219 14.1169 19.2228C13.6794 21.9238 15.5143 24.4679 18.2152 24.9054C20.9162 25.3428 23.4603 23.5079 23.8978 20.807Z" fill="#616173"/>
<path d="M23.9667 20.0169C23.9667 17.2851 21.7443 15.0627 19.0125 15.0627V24.971C21.7443 24.971 23.9667 22.7486 23.9667 20.0169Z" fill="#525263"/>
</svg>
