<svg width="32" height="32" viewBox="0 0 32 32" fill="none" xmlns="http://www.w3.org/2000/svg">
<g clip-path="url(#clip0_43_481)">
<path d="M18.8123 0.99975V4.81225C18.8123 5.33719 18.3998 5.74975 17.8748 5.74975H14.1248C13.5999 5.74975 13.1876 5.33719 13.1876 4.81225V0.99975C13.1876 0.474875 13.5999 0.0625 14.1248 0.0625H17.8748C18.3998 0.0625 18.8123 0.474875 18.8123 0.99975Z" fill="#663325"/>
<path d="M17.8748 5.74975H15.9998V0.0625H17.8748C18.3998 0.0625 18.8123 0.474875 18.8123 0.99975V4.81225C18.8123 5.33719 18.3998 5.74975 17.8748 5.74975Z" fill="#3C1B13"/>
<path d="M22.5621 4.81228V10.4371C22.5621 10.962 22.1498 11.3746 21.6246 11.3746H10.3751C9.85017 11.3746 9.43755 10.962 9.43755 10.4371V4.81228C9.43755 4.28715 9.85017 3.87477 10.3751 3.87477H21.6246C22.1498 3.87477 22.5621 4.28715 22.5621 4.81228Z" fill="#FDBF00"/>
<path d="M22.5621 4.81228V10.4371C22.5621 10.962 22.1498 11.3746 21.6246 11.3746L15.9998 11.3745V3.87477H21.6246C22.1498 3.87477 22.5621 4.28715 22.5621 4.81228Z" fill="#FF9F00"/>
<path d="M26.3121 10.4371V18.1994C26.3121 18.7242 25.8996 19.1369 25.3746 19.1369H6.62528C6.10015 19.1369 5.68777 18.7242 5.68777 18.1994V10.4371C5.68777 9.91193 6.10015 9.49956 6.62528 9.49956H25.3746C25.8996 9.49956 26.3121 9.91193 26.3121 10.4371Z" fill="#EC5569"/>
<path d="M26.3121 10.4371L26.3121 18.1993C26.3121 18.7242 25.8995 19.1368 25.3746 19.1368H15.9998V9.49956H25.3746C25.8996 9.49956 26.3121 9.91193 26.3121 10.4371Z" fill="#CC2E43"/>
<path d="M30.0244 20.0744L26.8932 31.0427C26.8932 31.0427 26.8745 31.0614 26.8745 31.0802C26.612 30.9862 26.3683 30.8552 26.1996 30.6115C25.5995 29.7114 24.6246 29.1865 23.5373 29.1865C22.4684 29.1865 21.4935 29.7114 20.8934 30.6115C20.3873 31.3612 19.2062 31.3612 18.6998 30.6115C18.1 29.7114 17.1248 29.1865 16.0375 29.1865H15.9998C14.95 29.2052 13.9937 29.7302 13.3939 30.6115C12.8875 31.3612 11.7064 31.3612 11.2002 30.6115C10.6002 29.7114 9.62505 29.1865 8.53785 29.1865C7.46903 29.1865 6.49415 29.7114 5.89409 30.6115C5.70659 30.874 5.42533 31.0239 5.12552 31.0988L1.97531 20.0744C1.844 19.6241 2.06907 19.1369 2.50026 18.9491L15.6248 13.3243C15.7373 13.287 15.8685 13.2493 15.9998 13.2493C16.1312 13.2493 16.2623 13.287 16.3748 13.3243L29.4994 18.9491C29.9306 19.1368 30.1557 19.6242 30.0244 20.0744Z" fill="#663325"/>
<path d="M30.0244 20.0744L26.8932 31.0427C26.8932 31.0427 26.8745 31.0614 26.8745 31.0802C26.612 30.9862 26.3683 30.8552 26.1996 30.6115C25.5995 29.7114 24.6246 29.1865 23.5373 29.1865C22.4684 29.1865 21.4935 29.7114 20.8934 30.6115C20.3873 31.3612 19.2062 31.3612 18.6998 30.6115C18.1 29.7114 17.1248 29.1865 16.0375 29.1865H15.9998V13.2495C16.1312 13.2495 16.2625 13.2869 16.3748 13.3245L29.4994 18.9492C29.9306 19.1367 30.1557 19.6241 30.0244 20.0742V20.0744Z" fill="#3C1B13"/>
<path d="M20.6871 19.8116C20.6871 20.3295 20.2674 20.7491 19.7499 20.7491C19.232 20.7491 18.8124 20.3295 18.8124 19.8116C18.8124 19.2941 19.232 18.8744 19.7499 18.8744C20.2674 18.8744 20.6871 19.294 20.6871 19.8116Z" fill="#B6C4CF"/>
<path d="M13.1876 19.8116C13.1876 20.3295 12.7676 20.7491 12.2501 20.7491C11.7322 20.7491 11.3126 20.3295 11.3126 19.8116C11.3126 19.2941 11.7322 18.8744 12.2501 18.8744C12.7676 18.8744 13.1876 19.2941 13.1876 19.8116ZM31.9994 29.0988C32.018 29.6237 31.6057 30.0363 31.0807 30.055C30.6494 30.0739 30.2557 30.28 30.0119 30.6364C29.412 31.5363 28.3744 32.0612 27.287 32.0612C26.2184 32.0612 25.2433 31.5363 24.6434 30.6364C24.1371 29.9052 22.9559 29.9052 22.4498 30.6364C21.8497 31.5363 20.8746 32.0612 19.7875 32.0612C18.7186 32.0612 17.7437 31.5363 17.1437 30.6364C16.8812 30.2614 16.45 30.0739 15.9999 30.0925C15.606 30.1112 15.2125 30.2987 14.95 30.6364C14.3499 31.5363 13.3751 32.0612 12.2877 32.0612C11.2188 32.0612 10.2439 31.5363 9.64386 30.6364C9.13773 29.9052 7.9566 29.9052 7.45022 30.6364C6.85034 31.5363 5.87521 32.0612 4.78783 32.0612C3.71926 32.0612 2.68163 31.5363 2.08182 30.6364C1.81931 30.2614 1.36912 30.0363 0.956809 30.0551C0.488056 30.0364 0.0193033 29.6614 0.000740739 29.1364C-0.0180719 28.6112 0.394493 28.1989 0.919434 28.1801C1.98806 28.1801 3.10057 28.6862 3.70045 29.6051C4.20683 30.3549 5.38796 30.3549 5.89409 29.6051C6.49415 28.705 7.46903 28.1801 8.53785 28.1801C9.6253 28.1801 10.6002 28.705 11.2002 29.6051C11.7064 30.3549 12.8878 30.3549 13.3939 29.6051C13.9937 28.7239 14.95 28.1989 15.9998 28.1801H16.0375C17.1248 28.1801 18.1 28.705 18.6998 29.6051C19.2062 30.3549 20.3873 30.3549 20.8934 29.6051C21.4936 28.705 22.4684 28.1801 23.5372 28.1801C24.6247 28.1801 25.5995 28.705 26.1996 29.6051C26.706 30.3549 27.8871 30.3549 28.3932 29.6051C28.9743 28.7426 29.9931 28.1989 31.0431 28.1801C31.6056 28.1989 31.9806 28.5739 31.9994 29.0989V29.0988Z" fill="#C5D3DD"/>
<path d="M31.9994 29.0988C32.018 29.6237 31.6057 30.0363 31.0807 30.055C30.6494 30.0739 30.2557 30.28 30.0119 30.6364C29.412 31.5363 28.3744 32.0612 27.287 32.0612C26.2184 32.0612 25.2433 31.5363 24.6434 30.6364C24.1371 29.9052 22.9559 29.9052 22.4498 30.6364C21.8497 31.5363 20.8746 32.0612 19.7875 32.0612C18.7186 32.0612 17.7437 31.5363 17.1437 30.6364C16.8812 30.2614 16.45 30.0739 15.9999 30.0925L15.9998 28.1801H16.0374C17.1249 28.1801 18.0999 28.7052 18.6998 29.6051C19.2062 30.3551 20.3873 30.3551 20.8934 29.6051C21.4936 28.7052 22.4684 28.1801 23.5372 28.1801C24.6247 28.1801 25.5995 28.7052 26.1996 29.6051C26.706 30.3551 27.8871 30.3551 28.3932 29.6051C28.9743 28.7426 29.9931 28.1989 31.0431 28.1801C31.6056 28.1989 31.9806 28.5739 31.9994 29.0989V29.0988Z" fill="#B6C4CF"/>
</g>
<defs>
<clipPath id="clip0_43_481">
<rect width="32" height="32" fill="white"/>
</clipPath>
</defs>
</svg>
