<svg width="32" height="32" viewBox="0 0 32 32" fill="none" xmlns="http://www.w3.org/2000/svg">
<g clip-path="url(#clip0_44_568)">
<path d="M29.5938 2.49998C28.3014 2.49998 27.25 3.55135 27.25 4.84373V11.1794L28.1001 12.5867L27.0181 13.6687L18.105 19.151C16.7476 20.5085 16 22.3135 16 24.2332L15.0625 30.125L16 32H24.75C25.2677 32 25.6875 31.5802 25.6875 31.0625V27.6939C25.6878 27.1822 25.8672 26.6868 26.1945 26.2935L30.2716 21.401C31.3459 20.1118 31.9375 18.4777 31.9375 16.7997V4.84373C31.9375 3.55135 30.8861 2.49998 29.5938 2.49998Z" fill="#FFCDBE"/>
<path d="M27.25 11.1794V13.4367C28.1074 14.3557 28.0888 15.7957 27.1931 16.6913L23.7614 20.1229C23.3953 20.489 23.3953 21.0826 23.7614 21.4487C24.1276 21.8148 24.7211 21.8148 25.0872 21.4487L28.5189 18.017C30.1666 16.3695 30.1664 13.6982 28.5187 12.0507C28.153 11.6847 27.7229 11.3893 27.25 11.1794Z" fill="#FFBEAA"/>
<path d="M23.8787 13.377L18.1051 19.151L22.4357 21.4489L27.1932 16.6914C28.1085 15.7761 28.1084 14.2921 27.1931 13.3769C26.2778 12.4617 24.7939 12.4618 23.8787 13.377Z" fill="#FFCDBE"/>
<path d="M2.40625 2.49998C3.69863 2.49998 4.75 3.55135 4.75 4.84373V11.1794L3.89987 12.5867L4.98194 13.6687L13.8949 19.151C15.2524 20.5085 15.9999 22.3135 15.9999 24.2332L16 32H7.25C6.73225 32 6.3125 31.5802 6.3125 31.0625V27.6939C6.31215 27.1822 6.13279 26.6868 5.8055 26.2935L1.72844 21.401C0.654125 20.1118 0.0625 18.4777 0.0625 16.7997V4.84373C0.0625 3.55135 1.11388 2.49998 2.40625 2.49998Z" fill="#FFDECF"/>
<path d="M4.75 11.1794V13.4367C3.89262 14.3557 3.91119 15.7957 4.80688 16.6913L8.23856 20.1229C8.60469 20.489 8.60469 21.0826 8.23856 21.4487C7.87244 21.8148 7.27887 21.8148 6.91275 21.4487L3.48106 18.017C1.83344 16.3695 1.83356 13.6982 3.48125 12.0507C3.847 11.6847 4.27711 11.3893 4.75 11.1794Z" fill="#FFCDBE"/>
<path d="M8.12125 13.377L13.8949 19.151L9.56431 21.4489L4.80681 16.6914C3.8915 15.7761 3.89156 14.2921 4.80694 13.3769C5.72225 12.4617 7.20606 12.4618 8.12125 13.377Z" fill="#FFDECF"/>
<path d="M22.5602 1.39441C20.7409 -0.424961 17.8048 -0.463961 15.9375 1.27748C14.0702 -0.463961 11.1342 -0.424961 9.31475 1.39441C7.45544 3.25366 7.45544 6.27898 9.31475 8.13823L15.2746 14.098C15.6407 14.4642 16.2342 14.4642 16.6004 14.098L22.5602 8.13823C24.4195 6.27898 24.4195 3.25366 22.5602 1.39441Z" fill="#FF80AA"/>
<path d="M22.5602 1.39441C20.7409 -0.424961 17.8048 -0.463961 15.9375 1.27748V14.3727C16.1774 14.3727 16.4174 14.2812 16.6004 14.0981L22.5602 8.13829C24.4195 6.27898 24.4195 3.25366 22.5602 1.39441Z" fill="#ED3C94"/>
</g>
<defs>
<clipPath id="clip0_44_568">
<rect width="32" height="32" fill="white"/>
</clipPath>
</defs>
</svg>
