<svg width="32" height="32" viewBox="0 0 32 32" fill="none" xmlns="http://www.w3.org/2000/svg">
<path d="M28.5625 4.93262V29.0413C28.5625 30.6726 27.2336 32 25.6006 32H6.39937C4.76644 32 3.4375 30.6726 3.4375 29.0413V4.93262C3.4375 3.30056 4.76637 1.97362 6.39937 1.97362H25.6006C27.2336 1.97362 28.5625 3.3005 28.5625 4.93262Z" fill="#FFF4F4"/>
<path d="M28.5625 4.93262V29.0413C28.5625 30.6726 27.2336 32 25.6006 32H16V1.97362H25.6006C27.2336 1.97362 28.5625 3.3005 28.5625 4.93262Z" fill="#F3E2DD"/>
<path d="M20.4807 2.907V2.91506C20.4807 4.51806 19.1767 5.82175 17.5737 5.82175H14.4263C12.8233 5.82175 11.5193 4.51806 11.5193 2.91506V2.90694C11.5193 1.30375 12.8233 0 14.4263 0H17.5737C19.1767 0 20.4807 1.30375 20.4807 2.907Z" fill="#FFF543"/>
<path d="M8.18337 13.2214C8.43825 13.4763 8.77319 13.6038 9.10838 13.6038C9.44338 13.6038 9.77838 13.4763 10.0334 13.2212L12.2007 11.0539C12.5669 10.688 12.5669 10.0945 12.2007 9.72831C11.8347 9.36206 11.2409 9.36206 10.8748 9.72831L9.10838 11.4946L8.55638 10.9429C8.19044 10.5769 7.59694 10.5769 7.23075 10.9429C6.8645 11.3091 6.8645 11.9026 7.23075 12.2688L8.18337 13.2214ZM10.8748 16.3335L9.10813 18.0999L8.55638 17.5481C8.19044 17.1819 7.59669 17.1819 7.23075 17.5481C6.8645 17.9143 6.8645 18.5078 7.23075 18.8738L8.18313 19.8264C8.43825 20.0816 8.77319 20.2089 9.10813 20.2089C9.44306 20.2089 9.77831 20.0816 10.0334 19.8264L12.2007 17.6592C12.5666 17.2929 12.5666 16.6994 12.2007 16.3333C11.8344 15.9673 11.2409 15.9673 10.8748 16.3335ZM10.8748 22.6025L9.10813 24.3689L8.55638 23.8172C8.19044 23.4513 7.59669 23.4513 7.23075 23.8172C6.8645 24.1834 6.8645 24.7769 7.23075 25.1431L8.18313 26.0958C8.43825 26.3506 8.77319 26.4781 9.10813 26.4781C9.44306 26.4781 9.77831 26.3506 10.0334 26.0956L12.2007 23.9283C12.5666 23.5621 12.5666 22.9686 12.2007 22.6026C11.8344 22.2364 11.2409 22.2364 10.8748 22.6026V22.6025Z" fill="#00E87B"/>
<path d="M24.7412 11.7168C24.7412 12.2344 24.3212 12.6543 23.8037 12.6543H14.7111C14.193 12.6543 13.7736 12.2344 13.7736 11.7168C13.7736 11.1987 14.193 10.7793 14.7111 10.7793H23.8036C24.3212 10.7793 24.7411 11.1987 24.7411 11.7168H24.7412ZM24.7412 18.3218C24.7412 18.8394 24.3212 19.2593 23.8037 19.2593H14.7111C14.193 19.2593 13.7736 18.8394 13.7736 18.3218C13.7736 17.8037 14.193 17.3843 14.7111 17.3843H23.8036C24.3212 17.3843 24.7411 17.8037 24.7411 18.3218H24.7412ZM24.7412 24.5906C24.7412 25.1086 24.3212 25.5281 23.8037 25.5281H14.7111C14.193 25.5281 13.7736 25.1086 13.7736 24.5906C13.7736 24.0732 14.193 23.6531 14.7111 23.6531H23.8036C24.3212 23.6531 24.7411 24.0732 24.7411 24.5906H24.7412Z" fill="#F3E2DD"/>
<path d="M17.5737 5.82175H16V0H17.5737C19.1767 0 20.4807 1.30375 20.4807 2.907V2.91506C20.4807 4.51806 19.1767 5.82175 17.5737 5.82175Z" fill="#FFCE00"/>
<path d="M24.7412 24.5906C24.7412 25.1086 24.3212 25.5281 23.8037 25.5281H16V23.6531H23.8037C24.3212 23.6531 24.7412 24.0732 24.7412 24.5906ZM24.7412 18.3218C24.7412 18.8394 24.3212 19.2593 23.8037 19.2593H16V17.3843H23.8037C24.3212 17.3843 24.7412 17.8037 24.7412 18.3218ZM23.8037 12.6543H16V10.7793H23.8037C24.3212 10.7793 24.7412 11.1987 24.7412 11.7168C24.7412 12.2344 24.3212 12.6543 23.8037 12.6543Z" fill="#D2BFBA"/>
</svg>
