<svg width="32" height="32" viewBox="0 0 32 32" fill="none" xmlns="http://www.w3.org/2000/svg">
<path d="M16.8498 0L18.0125 1.06956L16.8498 1.875C11.6791 1.875 7.47288 6.08063 7.47288 11.25V14.1875L6.53538 15.125L5.59788 14.8687V11.25C5.59788 5.04688 10.6454 0 16.8498 0Z" fill="#80D4FF"/>
<path d="M28.101 11.25V14.8687L27.1635 15.125L26.226 14.1875V11.25C26.226 6.08063 22.0198 1.875 16.8498 1.875V0C23.0535 0 28.101 5.04688 28.101 11.25Z" fill="#66B3FF"/>
<path d="M15.7648 24.2575L11.6798 28.555C11.5921 28.647 11.4867 28.7203 11.3699 28.7703C11.2532 28.8204 11.1274 28.8462 11.0004 28.8463H10.9891L6.75788 28.7981C6.56225 28.7956 6.37163 28.7325 6.2135 28.6162C6.18288 28.5938 6.15288 28.5712 6.12225 28.5487C4.9635 27.685 4.17288 26.4294 3.896 25.0131C3.61913 23.5944 3.881 22.1344 4.6335 20.9019C5.94975 18.7469 6.5235 15.85 6.52913 15.8212C6.57063 15.6076 6.6852 15.415 6.85318 15.2765C7.02116 15.1381 7.23208 15.0624 7.44975 15.0625H11.3073C11.6635 15.0625 11.9885 15.2644 12.1473 15.5831L15.9254 23.1944C16.1004 23.5475 16.0366 23.9719 15.7648 24.2575Z" fill="#873F2E"/>
<path d="M28.1016 14.8687L28.0835 17.8875C28.0835 19.7069 26.6029 21.1875 24.7829 21.1875H22.5973C22.9511 20.7666 22.3246 20.25 22.3246 20.25C22.3246 20.25 23.6776 19.4831 23.7504 19.3125H24.7829C25.5691 19.3125 26.2085 18.6731 26.2085 17.8875V17.7237C25.9966 17.7806 25.7741 17.8113 25.5448 17.8113H23.5185C23.0123 17.8113 22.6023 17.4006 22.6023 16.895V13.2288C22.6023 12.7231 23.0123 12.3125 23.5185 12.3125H25.5448C26.9541 12.3125 28.1016 13.4594 28.1016 14.8687Z" fill="#453D86"/>
<path d="M11.0974 13.229V16.8949C11.0974 17.4008 10.6874 17.8114 10.1809 17.8114H8.15482C6.74525 17.8114 5.59781 16.6646 5.59781 15.2551V14.8689C5.59781 13.4594 6.74525 12.3126 8.15482 12.3126H10.1809C10.6874 12.3125 11.0974 12.7231 11.0974 13.229Z" fill="#5F55B3"/>
<path d="M16.8498 9.30188L19.6498 15.7616L16.8498 23.25C12.7135 23.25 9.3485 19.8856 9.3485 15.75V12.3125L16.8498 9.30188Z" fill="#FFD9B3"/>
<path d="M16.8498 9.30188V23.25C20.986 23.25 24.351 19.8856 24.351 15.75V12.3125L16.8498 9.30188Z" fill="#FFBB99"/>
<path d="M16.8498 3.75L20.2023 8.3025L16.8498 10.5519C16.6941 10.7701 16.5248 10.9782 16.3429 11.175C15.4291 12.1637 13.791 13.2806 11.0548 13.2806C10.7848 13.2812 10.5041 13.27 10.2123 13.2469C9.72475 13.2087 9.3485 12.8019 9.3485 12.3125V11.25C9.3485 7.11438 12.7135 3.75 16.8498 3.75Z" fill="#B95D4C"/>
<path d="M23.7504 19.3125C23.4607 19.991 23.0721 20.6229 22.5973 21.1875H18.8498C18.3323 21.1875 17.9123 20.7675 17.9123 20.25C17.9123 19.7325 18.3323 19.3125 18.8498 19.3125H23.7504Z" fill="#453D86"/>
<path d="M24.3504 11.25V12.3125C24.3504 12.8019 23.9741 13.2087 23.4866 13.2469C23.1948 13.27 22.9141 13.2806 22.6441 13.2806C19.9073 13.2806 18.2698 12.1637 17.3566 11.175C17.1747 10.9782 17.0054 10.7701 16.8498 10.5519V3.75C20.9854 3.75 24.3504 7.11438 24.3504 11.25Z" fill="#873F2E"/>
<path d="M16.8498 23.0494L17.7399 25.5707L16.8498 32L13.8279 29.0432L13.4966 23.0494H16.8498Z" fill="#EFF6FF"/>
<path d="M20.2023 23.0494L19.8319 29.4964L16.8498 32V23.0494H20.2023Z" fill="#DAEBFF"/>
<path d="M16.8498 32H6.42475C5.907 32 5.48725 31.5802 5.48725 31.0625V30.4041C5.48725 27.4979 7.17275 24.9862 9.619 23.7916L12.5838 25.6028C12.5838 25.6028 14.2209 28.3739 15.5485 28.5258L16.8498 32Z" fill="#FF6699"/>
<path d="M28.2116 30.4041V31.0625C28.2116 31.5802 27.7918 32 27.2741 32H16.8498L18.1511 28.5257C19.8433 28.3321 21.0238 25.3104 21.0238 25.3104L24.0799 23.7915C26.5268 24.9861 28.2116 27.4978 28.2116 30.4041ZM15.5485 28.5257C10.4597 27.9432 9.61906 23.7916 9.61906 23.7916C10.5926 23.3165 11.686 23.0494 12.842 23.0494H13.4968L15.5485 28.5257Z" fill="#E62E6B"/>
<path d="M24.0798 23.7916C24.0798 23.7916 23.2398 27.9433 18.1511 28.5257L20.2021 23.0493H20.8569C22.0129 23.0494 23.1069 23.3165 24.0798 23.7916Z" fill="#B32453"/>
</svg>
