<svg width="32" height="32" viewBox="0 0 32 32" fill="none" xmlns="http://www.w3.org/2000/svg">
<g clip-path="url(#clip0_44_538)">
<path d="M31.7939 22.0144L31.7938 22.0142C31.3172 20.7049 29.8212 20.0852 28.5584 20.674L24.1353 22.7362L19.9207 26.1875H19.9203L10.0634 22L6.25819 26.4415L7.375 29.51L17.4174 30.8901C18.3161 31.0136 19.2157 30.8776 20.0332 30.4963C20.1001 30.4651 20.1663 30.4324 20.2316 30.3981L30.6646 24.9303C31.7181 24.3783 32.2007 23.1321 31.7939 22.0144Z" fill="#FFDECE"/>
<path d="M31.7938 22.0142C31.3172 20.7049 29.8212 20.0852 28.5584 20.674L24.1353 22.7362L19.9207 26.1875H19.9203L17.25 25.0531V30.8671L17.4175 30.8901C18.3162 31.0136 19.2158 30.8776 20.0333 30.4963C20.1002 30.4651 20.1663 30.4324 20.2317 30.3981L30.6646 24.9303C31.718 24.3781 32.2007 23.1319 31.7939 22.0144L31.7938 22.0142Z" fill="#FFCDBE"/>
<path d="M19.1853 26.7879C19.428 26.8306 19.6739 26.8522 19.9203 26.8523H19.9207C21.9701 26.8523 23.7162 25.3859 24.0724 23.3656C24.1096 23.1545 24.1301 22.9443 24.1353 22.7362L19.4346 24.9279L13.3092 23.8481C12.7996 23.7581 12.3131 24.0986 12.2232 24.6086C12.1333 25.1184 12.4738 25.6047 12.9836 25.6946L19.1853 26.7879Z" fill="#FFCDBE"/>
<path d="M17.25 24.5429V26.4468L19.1853 26.7879C19.428 26.8306 19.6739 26.8522 19.9203 26.8523H19.9207C21.9701 26.8523 23.7162 25.3859 24.0724 23.3656C24.1096 23.1545 24.1301 22.9443 24.1353 22.7362L19.4346 24.9279L17.25 24.5429Z" fill="#FFBEAA"/>
<path d="M10.5 23.3528L19.5108 24.9414C20.7856 25.1661 22.0011 24.3149 22.2259 23.0401C22.4506 21.7654 21.5994 20.5499 20.3247 20.3251L17.3116 19.7939C16.41 19.6349 15.5691 19.2929 14.8124 18.7774C12.6131 17.2791 9.80725 16.9279 7.30662 17.8381L3.61575 19.1815L7.378 29.5181L10.5 23.3528Z" fill="#FFDECE"/>
<path d="M20.3247 20.3251L17.3116 19.7939C17.291 19.7902 17.2706 19.7859 17.25 19.7821V24.5428L19.5108 24.9414C20.7856 25.1661 22.0011 24.3149 22.2259 23.0401C22.4506 21.7654 21.5994 20.5499 20.3247 20.3251Z" fill="#FFCDBE"/>
<path d="M3.32225 18.0607L0.679375 19.0227C0.498575 19.0885 0.342398 19.2083 0.232042 19.3659C0.121685 19.5235 0.0624936 19.7113 0.0625 19.9037V31.0625C0.0625 31.5802 0.48225 32 1 32H5.0615C5.17088 32 5.27938 31.9809 5.38212 31.9434L8.025 30.9815C8.51156 30.8044 8.76244 30.2664 8.58531 29.7799L4.52381 18.6211C4.34675 18.1346 3.80875 17.8837 3.32225 18.0607Z" fill="#00CC76"/>
<path d="M23.8125 0H10.6875L5.6875 5V8.125L10.6875 13.125H23.8125L28.8125 8.125V5L23.8125 0Z" fill="#A5E887"/>
<path d="M17.25 0V13.125H23.8125L28.8125 8.125V5L23.8125 0H17.25ZM5.6875 8.125V12.1875C5.6875 12.7052 6.10725 13.125 6.625 13.125H10.6875C10.6875 10.3636 8.44894 8.125 5.6875 8.125ZM10.6875 0H6.625C6.10725 0 5.6875 0.41975 5.6875 0.9375V5C8.44894 5 10.6875 2.76144 10.6875 0Z" fill="#00CC76"/>
<path d="M17.25 9.375C18.8033 9.375 20.0625 8.1158 20.0625 6.5625C20.0625 5.0092 18.8033 3.75 17.25 3.75C15.6967 3.75 14.4375 5.0092 14.4375 6.5625C14.4375 8.1158 15.6967 9.375 17.25 9.375Z" fill="#00CC76"/>
<path d="M11.625 7.5C12.1428 7.5 12.5625 7.08027 12.5625 6.5625C12.5625 6.04473 12.1428 5.625 11.625 5.625C11.1072 5.625 10.6875 6.04473 10.6875 6.5625C10.6875 7.08027 11.1072 7.5 11.625 7.5Z" fill="#00CC76"/>
<path d="M22.875 7.5C23.3928 7.5 23.8125 7.08027 23.8125 6.5625C23.8125 6.04473 23.3928 5.625 22.875 5.625C22.3572 5.625 21.9375 6.04473 21.9375 6.5625C21.9375 7.08027 22.3572 7.5 22.875 7.5Z" fill="#00AA63"/>
<path d="M23.8125 13.125H27.875C28.3927 13.125 28.8125 12.7052 28.8125 12.1875V8.125C26.0511 8.125 23.8125 10.3636 23.8125 13.125ZM27.875 0H23.8125C23.8125 2.76144 26.0511 5 28.8125 5V0.9375C28.8125 0.41975 28.3927 0 27.875 0ZM20.0625 6.5625C20.0625 5.01169 18.8008 3.75 17.25 3.75V9.375C18.8008 9.375 20.0625 8.11331 20.0625 6.5625Z" fill="#00AA63"/>
</g>
<defs>
<clipPath id="clip0_44_538">
<rect width="32" height="32" fill="white"/>
</clipPath>
</defs>
</svg>
