<svg width="32" height="32" viewBox="0 0 32 32" fill="none" xmlns="http://www.w3.org/2000/svg">
<g clip-path="url(#clip0_42_462)">
<path d="M8.717 23.9111C3.62113 22.3776 0 17.5821 0 12.25C0 5.53 5.53 0 12.25 0C17.5821 0 22.3776 3.62113 23.9111 8.717C24.1284 9.43863 23.4443 10.1045 22.7364 9.88244C21.7797 9.58763 20.7745 9.4375 19.75 9.4375C14.0637 9.4375 9.4375 14.0637 9.4375 19.75C9.4375 20.7745 9.58763 21.7797 9.88244 22.7364C10.1036 23.4494 9.4375 24.1265 8.717 23.9111Z" fill="#2682FF"/>
<path d="M19.75 32C14.4179 32 9.62244 28.3789 8.08894 23.283C8.04002 23.1201 8.03633 22.947 8.07827 22.7822C8.1202 22.6173 8.20618 22.467 8.327 22.3473C8.5705 22.1029 8.93125 22.0141 9.26356 22.1175C10.2203 22.4124 11.2255 22.5625 12.25 22.5625C17.9363 22.5625 22.5625 17.9363 22.5625 12.25C22.5625 11.2255 22.4124 10.2203 22.1176 9.26356C22.0673 9.10129 22.0622 8.92841 22.1027 8.76343C22.1431 8.59845 22.2277 8.44759 22.3474 8.327C22.5918 8.08162 22.9544 7.99194 23.2831 8.08894C28.3789 9.62244 32 14.418 32 19.75C32 26.47 26.47 32 19.75 32Z" fill="#C6E2E7"/>
<path d="M24.4375 12.25C24.4375 10.8659 24.2198 9.53025 23.7571 8.24294C22.4697 7.78019 21.1341 7.5625 19.75 7.5625C18.8501 7.5625 17.9688 7.65625 17.1249 7.84381L17.4856 9.30612L15.1188 8.48125C14.5 8.725 13.9188 9.04375 13.3563 9.38119L14.1558 11.4806L11.8376 10.5063C11.3501 10.9001 10.9001 11.35 10.5251 11.8376L11.5382 14.2481L9.38119 13.3563C9.04369 13.9 8.74375 14.5001 8.48125 15.1001L9.33844 17.5519L7.84381 17.1249C7.65625 17.9688 7.5625 18.8501 7.5625 19.75C7.5625 21.1341 7.78019 22.4697 8.24294 23.7571C9.53025 24.2198 10.8659 24.4375 12.25 24.4375C13.1499 24.4375 14.0312 24.3438 14.8751 24.1562L14.3264 22.4524L16.9 23.5187C17.5 23.2562 18.1 22.9562 18.6437 22.6188L17.649 20.3238L20.1624 21.475C20.6499 21.1 21.0999 20.65 21.4937 20.1625L20.3062 17.5779L22.6188 18.6437C22.9563 18.0812 23.275 17.5 23.5187 16.8813L22.4377 14.2669L24.1562 14.8751C24.3438 14.0312 24.4375 13.1499 24.4375 12.25Z" fill="#7ED8F6"/>
<path d="M12.25 24.4375C13.1499 24.4375 14.0312 24.3438 14.8751 24.1562L14.3264 22.4524L16.9 23.5187C17.5 23.2562 18.1 22.9562 18.6437 22.6188L17.649 20.3238L20.1624 21.475C20.6499 21.1 21.0999 20.65 21.4937 20.1625L20.3062 17.5779L22.6188 18.6437C22.9563 18.0812 23.275 17.5 23.5187 16.8813L22.4377 14.2669L24.1562 14.8751C24.3438 14.0312 24.4375 13.1499 24.4375 12.25C24.4375 10.8659 24.2198 9.53025 23.7571 8.24294L8.24294 23.7571C9.53025 24.2198 10.8659 24.4375 12.25 24.4375Z" fill="#6AA9FF"/>
<path d="M16.8999 23.5187C16.2437 23.7812 15.5688 24.0063 14.875 24.1562L7.84381 17.1249C7.99375 16.4312 8.21869 15.7563 8.48119 15.1L16.8999 23.5187ZM20.1624 21.4749C19.6937 21.9062 19.1875 22.2812 18.6437 22.6187L9.38119 13.3562C9.71881 12.8124 10.0937 12.3062 10.525 11.8375L20.1624 21.4749ZM22.6188 18.6437C22.2812 19.1876 21.9063 19.6937 21.4937 20.1624L11.8376 10.5063C12.3063 10.0937 12.8125 9.71881 13.3563 9.38119L22.6188 18.6437ZM24.1562 14.8751C24.0063 15.5688 23.7812 16.2437 23.5187 16.8812L15.1188 8.48125C15.7563 8.21875 16.4312 7.99375 17.1249 7.84381L24.1562 14.8751Z" fill="#2682FF"/>
<path d="M14.8751 24.1561C15.5688 24.0062 16.2437 23.7812 16.9 23.5187L12.6906 19.3093L11.3594 20.6405L14.8751 24.1561ZM18.6437 22.6187C19.1875 22.2811 19.6937 21.9062 20.1624 21.4749L15.3438 16.6562L14.0125 17.9874L18.6437 22.6187ZM21.4937 20.1624C21.9063 19.6936 22.2812 19.1874 22.6188 18.6436L17.9876 14.0123L16.6657 15.3342L21.4937 20.1624ZM19.3188 12.6811L23.5188 16.8811C23.7813 16.2437 24.0063 15.5687 24.1562 14.875L20.6406 11.3594L19.3188 12.6811Z" fill="#2682FF"/>
</g>
<defs>
<clipPath id="clip0_42_462">
<rect width="32" height="32" fill="white"/>
</clipPath>
</defs>
</svg>
