<svg width="32" height="32" viewBox="0 0 32 32" fill="none" xmlns="http://www.w3.org/2000/svg">
<g clip-path="url(#clip0_44_494)">
<path d="M16 32.0001C15.8259 32.0001 15.6552 31.9516 15.5071 31.8601C15.359 31.7685 15.2393 31.6375 15.1615 31.4818C14.5402 30.2392 12.5527 29.3401 10.4485 28.3883C6.68824 26.6872 2.00836 24.5701 2.00836 19.0126C2.00836 16.3216 2.55292 14.9602 3.07961 13.6436C3.56149 12.4388 4.01667 11.3008 4.01667 8.97088C4.01667 7.65213 2.76436 6.102 2.2818 5.61594C1.91792 5.24944 1.9178 4.65644 2.28299 4.29131L6.29967 0.274627C6.63717 -0.0630608 7.1748 -0.0929984 7.54792 0.205189C7.54792 0.205189 7.77561 0.387189 8.13405 0.674189C10.289 2.39781 13.3859 2.22619 15.3371 0.274627C15.5128 0.0988766 15.7513 6.41259e-05 16 6.41259e-05C16.2487 6.41259e-05 16.4877 0.0988766 16.6634 0.274752C18.6146 2.22625 21.7115 2.39794 23.867 0.673877L24.4514 0.205877C24.8244 -0.0929359 25.3625 -0.0632484 25.7004 0.274689L29.717 4.29138C30.0832 4.65744 30.0832 5.25106 29.717 5.61719C29.2357 6.10206 27.9834 7.65225 27.9834 8.97094C27.9834 11.3008 28.4385 12.4388 28.9204 13.6436C29.4471 14.9603 29.9917 16.3217 29.9917 19.0126C29.9917 24.5702 25.3118 26.6872 21.5515 28.3883C19.4473 29.3402 17.4599 30.2393 16.8385 31.4819C16.7607 31.6376 16.641 31.7685 16.4929 31.8601C16.3448 31.9516 16.1741 32.0001 16 32.0001Z" fill="#FFA200"/>
<path d="M16 32.0001V6.41259e-05C16.2487 6.41259e-05 16.4877 0.0988766 16.6634 0.274752C18.6146 2.22625 21.7115 2.39794 23.867 0.673877L24.4514 0.205877C24.8244 -0.0929359 25.3625 -0.0632484 25.7004 0.274689L29.717 4.29138C30.0832 4.65744 30.0832 5.25106 29.717 5.61719C29.2357 6.10206 27.9834 7.65225 27.9834 8.97094C27.9834 11.3008 28.4385 12.4388 28.9204 13.6436C29.4471 14.9603 29.9917 16.3217 29.9917 19.0126C29.9917 24.5702 25.3118 26.6872 21.5515 28.3883C19.4473 29.3402 17.4599 30.2393 16.8385 31.4819C16.7607 31.6376 16.641 31.7685 16.4929 31.8601C16.3448 31.9516 16.1741 32.0001 16 32.0001Z" fill="#FF7B00"/>
<path d="M4.22674 4.99919C4.40387 5.22228 4.57178 5.45253 4.73005 5.68938C5.50086 6.84556 5.89167 7.94963 5.89167 8.97088C5.89167 11.6618 5.34711 13.0233 4.82042 14.3399C4.33855 15.5447 3.88336 16.6826 3.88336 19.0126C3.88336 23.3604 7.6138 25.0479 11.2214 26.6799C13.0801 27.5208 14.8595 28.3257 16 29.4893C17.1405 28.3257 18.9199 27.5208 20.7786 26.6799C24.3862 25.0479 28.1166 23.3604 28.1166 19.0126C28.1166 16.6827 27.6614 15.5447 27.1795 14.3399C26.6529 13.0233 26.1083 11.6618 26.1083 8.97088C26.1083 7.94963 26.4991 6.84556 27.2699 5.68938C27.4282 5.45252 27.5961 5.22227 27.7732 4.99919L24.9677 2.19369C23.6432 3.22688 22.0625 3.73644 20.4884 3.7365C18.8959 3.73663 17.31 3.21556 16.0002 2.18813C14.6905 3.21544 13.104 3.7365 11.5118 3.73656C9.93717 3.73663 8.35711 3.22725 7.03236 2.1935L4.22674 4.99919Z" fill="#FFD200"/>
<path d="M16 29.4893C17.1405 28.3257 18.9199 27.5208 20.7786 26.6799C24.3862 25.0479 28.1166 23.3604 28.1166 19.0126C28.1166 16.6827 27.6614 15.5447 27.1795 14.3399C26.6529 13.0233 26.1083 11.6618 26.1083 8.97088C26.1083 7.94963 26.4991 6.84556 27.2699 5.68938C27.4282 5.45252 27.5961 5.22227 27.7732 4.99919L24.9677 2.19369C23.6432 3.22688 22.0625 3.73644 20.4884 3.7365C18.8959 3.73663 17.31 3.21556 16.0002 2.18813L16 29.4893Z" fill="#FFA200"/>
<path d="M11.3172 21.4409C11.1757 21.3381 11.0658 21.1977 10.9999 21.0357C10.934 20.8737 10.9147 20.6964 10.9443 20.524L11.6503 16.4093L8.66086 13.4953C8.5356 13.3732 8.44701 13.2184 8.40508 13.0486C8.36316 12.8788 8.36959 12.7006 8.42363 12.5343C8.47768 12.3679 8.5772 12.22 8.71092 12.1072C8.84465 11.9945 9.00726 11.9214 9.18036 11.8962L13.3118 11.2958L15.1593 7.552C15.2367 7.39511 15.3564 7.26301 15.505 7.17064C15.6536 7.07827 15.825 7.02931 16 7.0293C16.1749 7.0293 16.3464 7.07824 16.4949 7.1706C16.6435 7.26296 16.7633 7.39506 16.8407 7.55194L18.6885 11.2959L22.82 11.8963C22.9932 11.9214 23.1558 11.9945 23.2896 12.1072C23.4233 12.22 23.5228 12.3679 23.5769 12.5343C23.631 12.7007 23.6374 12.8788 23.5954 13.0487C23.5535 13.2185 23.4649 13.3732 23.3396 13.4953L20.3502 16.4094L21.0556 20.5242C21.0852 20.6966 21.0659 20.8738 21 21.0359C20.9341 21.1979 20.8242 21.3383 20.6826 21.4411C20.5411 21.5439 20.3737 21.6051 20.1992 21.6177C20.0247 21.6303 19.8502 21.5938 19.6954 21.5124L16 19.5696L12.3045 21.5123C12.2925 21.5187 11.8035 21.7943 11.3172 21.4409Z" fill="#FFEBAA"/>
<path d="M15.9999 7.02925C16.1749 7.02924 16.3463 7.07817 16.4949 7.17052C16.6435 7.26287 16.7632 7.39494 16.8407 7.55181L18.6885 11.2958L22.82 11.8961C22.9932 11.9213 23.1558 11.9943 23.2896 12.1071C23.4233 12.2198 23.5228 12.3678 23.5769 12.5342C23.631 12.7005 23.6374 12.8787 23.5954 13.0485C23.5535 13.2184 23.4649 13.3731 23.3396 13.4952L20.3502 16.4093L21.0556 20.5241C21.0852 20.6965 21.0659 20.8737 21 21.0357C20.9341 21.1978 20.8242 21.3381 20.6826 21.441C20.5411 21.5438 20.3737 21.6049 20.1992 21.6176C20.0247 21.6302 19.8502 21.5937 19.6954 21.5123L16 19.5696L15.9999 7.02925Z" fill="#FFD200"/>
</g>
<defs>
<clipPath id="clip0_44_494">
<rect width="32" height="32" fill="white"/>
</clipPath>
</defs>
</svg>
