<svg width="32" height="32" viewBox="0 0 32 32" fill="none" xmlns="http://www.w3.org/2000/svg">
<g clip-path="url(#clip0_42_374)">
<path d="M28.9765 3.02339C24.9641 -1.0078 18.4202 -1.0078 14.4078 3.02339C11.6515 5.76095 10.6953 9.81102 11.8953 13.486C7.65781 17.7047 4.50006 20.8625 0.281312 25.1C0.09375 25.2687 0 25.5125 0 25.7562V31.0625C0 31.325 0.09375 31.5499 0.281312 31.7187C0.45 31.9062 0.675 32 0.9375 32H6.24381C6.48756 32 6.73131 31.9062 6.9 31.7187C7.3875 31.25 7.74375 30.875 8.23131 30.4062C8.43756 30.2 8.53125 29.9187 8.49381 29.6375C8.4375 29.1125 8.38131 28.7188 8.325 28.2125C9.0375 28.1376 9.58119 28.0813 10.3125 28.0251C10.7625 27.9688 11.0999 27.6313 11.1562 27.1813C11.2124 26.4688 11.2687 25.9063 11.3437 25.1938C11.85 25.2688 12.2437 25.3063 12.7687 25.3625C13.2937 25.4376 13.7999 25.0063 13.7999 24.4438V22.6875H15.525C15.7687 22.6875 16.0124 22.625 16.1812 22.4375C17.0437 21.575 17.6515 20.986 18.5141 20.1048C22.189 21.3047 26.2391 20.3485 28.9765 17.5922C33.0078 13.5796 33.0078 7.03595 28.9765 3.02339ZM26.3328 9.6422C25.2453 10.7485 23.4452 10.7485 22.3578 9.6422C21.2515 8.55464 21.2515 6.75477 22.3578 5.6672C23.4452 4.56089 25.2453 4.56089 26.3328 5.6672C27.439 6.75477 27.439 8.5547 26.3328 9.6422Z" fill="#FCBF29"/>
<path d="M28.9765 17.5922C26.2391 20.3485 22.189 21.3047 18.5141 20.1048C17.6515 20.986 17.0437 21.575 16.1812 22.4375C16.0124 22.625 15.7688 22.6875 15.5251 22.6875H13.8V24.4437C13.8 25.0062 13.2938 25.4375 12.7688 25.3625C12.2438 25.3063 11.85 25.2687 11.3438 25.1938C11.2688 25.9063 11.2125 26.4688 11.1563 27.1813C11.1 27.6313 10.7625 27.9687 10.3126 28.025C9.58131 28.0812 9.03756 28.1375 8.32506 28.2125C8.38138 28.7188 8.43756 29.1124 8.49387 29.6375C8.53131 29.9186 8.43756 30.2 8.23137 30.4061C7.74387 30.8749 7.38763 31.2499 6.90006 31.7186C6.73138 31.9061 6.48763 32 6.24388 32H0.9375C0.675 32 0.45 31.9062 0.281312 31.7187L22.3579 9.64214C23.4453 10.7485 25.2453 10.7485 26.3329 9.64214C27.4391 8.55458 27.4391 6.7547 26.3329 5.66714L28.9766 3.02333C33.0078 7.03595 33.0078 13.5796 28.9765 17.5922Z" fill="#FE9923"/>
</g>
<defs>
<clipPath id="clip0_42_374">
<rect width="32" height="32" fill="white"/>
</clipPath>
</defs>
</svg>
