<svg width="87" height="14" viewBox="0 0 87 14" fill="none" xmlns="http://www.w3.org/2000/svg">
<g clip-path="url(#clip0_32_260)">
<mask id="mask0_32_260" style="mask-type:luminance" maskUnits="userSpaceOnUse" x="0" y="0" width="87" height="14">
<path d="M86.8366 0H0V13.9808H86.8366V0Z" fill="white"/>
</mask>
<g mask="url(#mask0_32_260)">
<path d="M28.3873 0.287109V13.7501H25.0789V8.22684H18.5437V13.7501H15.2352V0.287109H18.5437V5.59944H25.0585V0.287109H28.3873Z" fill="white"/>
<path d="M35.1063 7.07615C34.6366 6.65423 34.3915 6.05971 34.3915 5.27341C34.3915 4.46793 34.6366 3.85423 35.1471 3.45149C35.6373 3.04875 36.3725 2.83779 37.3119 2.83779H43.4183V0.287109H37.2302C35.964 0.287109 34.8816 0.498068 33.9626 0.900808C33.0436 1.30355 32.3084 1.87889 31.8183 2.62684C31.3077 3.37478 31.0626 4.27615 31.0626 5.31177C31.0626 6.36656 31.3281 7.26793 31.8387 8.01588C32.3492 8.76382 33.1049 9.31999 34.0647 9.70355L31.083 13.7693H34.5753L37.1077 10.1638H40.1302V13.7309H43.3978V7.70903H37.2098C36.2908 7.70903 35.5964 7.49807 35.1063 7.07615Z" fill="white"/>
<path d="M57.1015 7.99699C57.5712 8.57233 57.8163 9.22439 57.8163 9.99151C57.8163 10.8162 57.5303 11.5258 56.9585 12.1203C56.3867 12.7148 55.6106 13.1751 54.6303 13.5011C53.6501 13.8271 52.5881 13.9806 51.424 13.9806C50.4437 13.9806 49.4634 13.8655 48.4832 13.6353C47.5029 13.4052 46.5839 13.06 45.7057 12.5806L46.7268 10.3559C47.3599 10.7203 48.0543 10.9888 48.8099 11.1805C49.5655 11.3723 50.3008 11.4682 51.036 11.4682C52.0163 11.4682 52.8332 11.2956 53.4867 10.9696C54.1402 10.6436 54.467 10.1641 54.467 9.56959C54.467 9.07096 54.2423 8.6874 53.793 8.43808C53.3437 8.18877 52.7515 8.05452 51.9754 8.05452H48.4832V5.67644H51.7303C52.4043 5.67644 52.9148 5.54219 53.3029 5.29288C53.6705 5.04356 53.8747 4.67918 53.8747 4.23808C53.8747 3.72028 53.6092 3.29836 53.0578 3.01069C52.5268 2.72302 51.8324 2.56959 50.9747 2.56959C50.3416 2.56959 49.7085 2.6463 49.0346 2.81891C48.3606 2.97233 47.7275 3.22165 47.1353 3.54767L46.1346 1.13124C47.6458 0.402469 49.2796 0.0380859 51.0564 0.0380859C52.1796 0.0380859 53.2008 0.19151 54.1402 0.49836C55.0796 0.805209 55.8353 1.2463 56.3867 1.84083C56.9381 2.43534 57.224 3.12575 57.224 3.89288C57.224 4.52575 57.0402 5.1011 56.6726 5.59973C56.305 6.09836 55.7944 6.48192 55.1613 6.75041C55.9782 6.99973 56.6317 7.42165 57.1015 7.99699Z" fill="white"/>
<path d="M71.5197 13.7505V11.2573H63.7183V8.13128H70.3761V5.71484H60.4303V13.7505H71.5197Z" fill="white"/>
<path d="M71.581 0.287109H60.4303V2.78026H71.581V0.287109Z" fill="#EF233C"/>
<path d="M86.1423 7.91999C85.6725 7.36382 85.019 6.98026 84.1408 6.73095C84.7739 6.44327 85.2845 6.04053 85.6317 5.52273C85.9789 5.0241 86.1627 4.42958 86.1627 3.75834C86.1627 2.64601 85.693 1.783 84.7739 1.18848C83.8549 0.593959 82.5479 0.287109 80.8732 0.287109H74.1951V2.58848H80.5873C81.3021 2.58848 81.8331 2.72273 82.2211 3.0104C82.5887 3.29807 82.793 3.70081 82.793 4.21862C82.793 4.7556 82.6092 5.15834 82.2416 5.44601C81.8739 5.71451 81.3225 5.86793 80.6077 5.86793H74.2155V13.7501H81.2817C83.0789 13.7501 84.4472 13.4241 85.407 12.7529C86.3669 12.0816 86.857 11.1611 86.857 9.97204C86.8366 9.14738 86.612 8.47615 86.1423 7.91999ZM81.1387 11.4488H77.5035V8.03506H81.1387C82.6908 8.03506 83.4669 8.59122 83.4669 9.70355C83.4873 10.8542 82.6908 11.4488 81.1387 11.4488Z" fill="white"/>
<path d="M7.39296 6.28985L13.3359 0.287109H9.63944L3.28803 6.57752V0.287109H0V13.5775L5.22817 8.45697L9.80282 13.7501H13.6831L7.39296 6.28985Z" fill="white"/>
</g>
</g>
<defs>
<clipPath id="clip0_32_260">
<rect width="87" height="14" fill="white"/>
</clipPath>
</defs>
</svg>
