<svg width="32" height="32" viewBox="0 0 32 32" fill="none" xmlns="http://www.w3.org/2000/svg">
<path d="M8.92893 9.98959C8.63604 9.6967 8.63604 9.22183 8.92893 8.92893C9.22183 8.63604 9.6967 8.63604 9.98959 8.92893L23.0711 22.0104C23.364 22.3033 23.364 22.7782 23.0711 23.0711C22.7782 23.364 22.3033 23.364 22.0104 23.0711L8.92893 9.98959Z" fill="#0D1B2A"/>
<path d="M9.98959 23.0711C9.6967 23.364 9.22183 23.364 8.92893 23.0711C8.63604 22.7782 8.63604 22.3033 8.92893 22.0104L22.0104 8.92893C22.3033 8.63604 22.7782 8.63604 23.0711 8.92893C23.364 9.22183 23.364 9.6967 23.0711 9.98959L9.98959 23.0711Z" fill="#0D1B2A"/>
</svg>
