<svg width="512" height="512" viewBox="0 0 512 512" fill="none" xmlns="http://www.w3.org/2000/svg">
<path d="M256.5 27C129.655 27 27 129.645 27 256.5C27 383.346 129.645 486 256.5 486C383.345 486 486 383.355 486 256.5C486 129.654 383.355 27 256.5 27ZM256.5 458C149.474 458 54.5 363.534 54.5 256.5C54.5 149.473 149.466 56 256.5 56C363.526 56 461 149.466 461 256.5C461 363.527 363.534 458 256.5 458Z" fill="black"/>
<path d="M315.39 296.372L275.517 256.5L315.39 216.627C320.641 211.376 320.641 202.862 315.39 197.61C310.138 192.358 301.624 192.359 296.373 197.61L256.5 237.483L216.627 197.61C211.376 192.358 202.861 192.358 197.61 197.61C192.359 202.862 192.359 211.376 197.61 216.627L237.483 256.5L197.61 296.372C192.359 301.624 192.358 310.138 197.61 315.389C202.863 320.642 211.377 320.64 216.627 315.389L256.5 275.517L296.373 315.389C301.623 320.641 310.138 320.641 315.39 315.389C320.642 310.138 320.641 301.624 315.39 296.372Z" fill="black"/>
</svg>
