<svg width="24" height="24" viewBox="0 0 24 24" fill="none" xmlns="http://www.w3.org/2000/svg">
<g clip-path="url(#clip0_36_359)">
<path d="M23.9765 7.05607C23.9203 5.78082 23.7141 4.90418 23.4186 4.14447C23.1139 3.33811 22.645 2.61618 22.0308 2.01602C21.4306 1.40652 20.7039 0.932901 19.9069 0.632936C19.1429 0.337566 18.2707 0.131276 16.9955 0.0751084C15.7108 0.0140652 15.3029 0 12.0445 0C8.78601 0 8.37816 0.0140652 7.09818 0.0703262C5.82298 0.126587 4.94629 0.332971 4.18681 0.628154C3.38022 0.932901 2.6583 1.40174 2.05813 2.01602C1.44864 2.61614 0.97525 3.34284 0.67505 4.13987C0.37968 4.90418 0.173437 5.77613 0.117223 7.05128C0.0562264 8.33605 0.0421143 8.7439 0.0421143 12.0023C0.0421143 15.2608 0.0562264 15.6687 0.11244 16.9486C0.168701 18.2239 0.375086 19.1005 0.670503 19.8602C0.97525 20.6666 1.44864 21.3885 2.05813 21.9887C2.6583 22.5982 3.385 23.0718 4.18203 23.3718C4.94624 23.6671 5.8182 23.8734 7.09363 23.9296C8.37338 23.986 8.78146 23.9999 12.0399 23.9999C15.2984 23.9999 15.7062 23.986 16.9862 23.9296C18.2614 23.8734 19.1381 23.6672 19.8976 23.3718C20.6952 23.0633 21.4196 22.5917 22.0244 21.987C22.6291 21.3823 23.1009 20.6579 23.4093 19.8602C23.7045 19.096 23.9109 18.2238 23.9671 16.9486C24.0234 15.6687 24.0375 15.2608 24.0375 12.0023C24.0375 8.7439 24.0327 8.336 23.9765 7.05607ZM21.8153 16.8549C21.7636 18.027 21.5667 18.6599 21.4026 19.0819C20.9993 20.1274 20.1695 20.9572 19.124 21.3605C18.702 21.5246 18.0645 21.7215 16.897 21.7729C15.6311 21.8294 15.2515 21.8432 12.0492 21.8432C8.84701 21.8432 8.4626 21.8294 7.20128 21.7729C6.02917 21.7215 5.39624 21.5246 4.97428 21.3605C4.45401 21.1682 3.98043 20.8635 3.59598 20.4649C3.19747 20.0758 2.89272 19.607 2.7004 19.0866C2.5363 18.6647 2.33944 18.027 2.28801 16.8596C2.23156 15.5938 2.21768 15.2139 2.21768 12.0117C2.21768 8.80944 2.23156 8.42504 2.28801 7.16395C2.33944 5.99184 2.5363 5.35891 2.7004 4.93695C2.89272 4.41644 3.19747 3.94296 3.60076 3.55841C3.98971 3.1599 4.45856 2.85515 4.97906 2.66307C5.40102 2.49897 6.03874 2.30206 7.20606 2.25044C8.47193 2.19418 8.85179 2.18011 12.0538 2.18011C15.2608 2.18011 15.6404 2.19418 16.9018 2.25044C18.0739 2.30211 18.7068 2.49893 19.1287 2.66302C19.649 2.85515 20.1226 3.1599 20.507 3.55841C20.9056 3.9476 21.2103 4.41644 21.4026 4.93695C21.5667 5.35891 21.7636 5.99639 21.8152 7.16395C21.8715 8.42982 21.8855 8.80944 21.8855 12.0117C21.8855 15.2139 21.8715 15.589 21.8153 16.8549Z" fill="white"/>
<path d="M12.0445 5.83708C8.64081 5.83708 5.87924 8.59846 5.87924 12.0023C5.87924 15.4062 8.64081 18.1676 12.0445 18.1676C15.4483 18.1676 18.2098 15.4062 18.2098 12.0023C18.2098 8.59846 15.4483 5.83708 12.0445 5.83708ZM12.0445 16.0016C9.83636 16.0016 8.0452 14.2107 8.0452 12.0023C8.0452 9.79401 9.83636 8.00313 12.0445 8.00313C14.2528 8.00313 16.0437 9.79401 16.0437 12.0023C16.0437 14.2107 14.2528 16.0016 12.0445 16.0016ZM19.893 5.59328C19.893 6.38815 19.2485 7.03262 18.4535 7.03262C17.6587 7.03262 17.0142 6.38815 17.0142 5.59328C17.0142 4.79831 17.6587 4.15403 18.4535 4.15403C19.2485 4.15403 19.893 4.79827 19.893 5.59328Z" fill="white"/>
</g>
<defs>
<clipPath id="clip0_36_359">
<rect width="24" height="24" fill="white"/>
</clipPath>
</defs>
</svg>
