<svg width="20" height="20" viewBox="0 0 20 20" fill="none" xmlns="http://www.w3.org/2000/svg">
<g clip-path="url(#clip0_88_153)">
<path d="M20 10C20 12.6522 18.9464 15.1957 17.0711 17.0711C15.1957 18.9464 12.6522 20 10 20C7.34783 20 4.8043 18.9464 2.92893 17.0711C1.05357 15.1957 0 12.6522 0 10C0 7.34784 1.05357 4.8043 2.92893 2.92893C4.8043 1.05357 7.34783 0 10 0C12.6522 0 15.1957 1.05357 17.0711 2.92893C18.9464 4.8043 20 7.34784 20 10Z" fill="white"/>
<path d="M2.4165 7.6731L4.46581 4.60029L2.4165 7.6731ZM3.18471 8.18542L5.23402 5.11261L3.18471 8.18542ZM3.95291 8.69775L6.00222 5.62494L3.95291 8.69775Z" fill="black"/>
<path d="M2.4165 7.6731L4.46581 4.60029M3.18471 8.18542L5.23402 5.11261M3.95291 8.69775L6.00222 5.62494" stroke="#222222" stroke-width="0.585896"/>
<path d="M13.6836 15.1875L15.7329 12.1147L13.6836 15.1875ZM14.4518 15.6998L16.5011 12.627L14.4518 15.6998ZM15.22 16.2122L17.2693 13.1393L15.22 16.2122Z" fill="black"/>
<path d="M13.6836 15.1875L15.7329 12.1147M14.4518 15.6998L16.5011 12.627M15.22 16.2122L17.2693 13.1393" stroke="#222222" stroke-width="0.585896"/>
<path d="M14.196 13.3091L16.7567 15.0168L14.196 13.3091Z" fill="black"/>
<path d="M14.196 13.3091L16.7567 15.0168" stroke="white" stroke-width="0.288477"/>
<path d="M12.9156 12.4553C14.0474 10.7582 13.5892 8.46494 11.8921 7.33313C10.1951 6.20133 7.90182 6.65957 6.77001 8.35663C5.63821 10.0537 6.09645 12.347 7.79351 13.4788C9.49058 14.6106 11.7838 14.1523 12.9156 12.4553Z" fill="#E74C3C"/>
<path d="M6.77001 8.35663C6.49826 8.76411 6.3995 9.26286 6.49547 9.74315C6.59145 10.2234 6.87428 10.6459 7.28176 10.9177C7.68924 11.1894 8.18799 11.2882 8.66828 11.1922C9.14857 11.0963 9.57107 10.8134 9.84282 10.4059C10.1146 9.99846 10.5371 9.71563 11.0174 9.61966C11.4977 9.52368 11.9964 9.62244 12.4039 9.89419C12.8114 10.1659 13.0942 10.5884 13.1902 11.0687C13.2861 11.549 13.1874 12.0478 12.9156 12.4553C12.3721 13.2702 11.5271 13.8359 10.5665 14.0278C9.60596 14.2198 8.60847 14.0223 7.79351 13.4788C6.97855 12.9352 6.41288 12.0903 6.22094 11.1297C6.02899 10.1691 6.2265 9.17159 6.77001 8.35663Z" fill="#356BA0"/>
<path d="M4.46338 16.2112L2.41407 13.1384L4.46338 16.2112ZM5.23158 15.6989L3.18227 12.626L5.23158 15.6989ZM5.99978 15.1865L3.95047 12.1137L5.99978 15.1865Z" fill="black"/>
<path d="M4.46338 16.2112L2.41407 13.1384M5.23158 15.6989L3.18227 12.626M5.99978 15.1865L3.95047 12.1137" stroke="#222222" stroke-width="0.585896"/>
<path d="M15.7305 8.69727L13.6812 5.62446L15.7305 8.69727ZM16.4987 8.18494L14.4494 5.11213L16.4987 8.18494ZM17.2669 7.67261L15.2176 4.5998L17.2669 7.67261Z" fill="black"/>
<path d="M15.7305 8.69727L13.6812 5.62446M16.4987 8.18494L14.4494 5.11213M17.2669 7.67261L15.2176 4.5998" stroke="#222222" stroke-width="0.585896"/>
<path d="M3.823 14.4189L4.5912 13.9066L3.823 14.4189ZM14.1937 7.50253L15.09 6.90481L14.1937 7.50253ZM15.8582 6.39248L16.6264 5.88016L15.8582 6.39248Z" fill="black"/>
<path d="M3.823 14.4189L4.5912 13.9066M14.1937 7.50253L15.09 6.90481M15.8582 6.39248L16.6264 5.88016" stroke="white" stroke-width="0.288477"/>
</g>
<defs>
<clipPath id="clip0_88_153">
<rect width="20" height="20" fill="white"/>
</clipPath>
</defs>
</svg>
