<svg width="20" height="20" viewBox="0 0 20 20" fill="none" xmlns="http://www.w3.org/2000/svg">
<g clip-path="url(#clip0_195_135)">
<path d="M10 19.9996C15.5226 19.9996 19.9999 15.522 19.9999 9.9998C19.9999 4.47765 15.523 0 10 0C4.47711 0 0.000244141 4.47804 0.000244141 9.9998C0.000244141 15.5216 4.4775 19.9996 10 19.9996Z" fill="#F0F0F0"/>
<path fill-rule="evenodd" clip-rule="evenodd" d="M18.5221 4.77851H9.55041V2.16724H16.2167C17.1321 2.89602 17.9124 3.77986 18.5221 4.77851ZM19.9998 9.9999H9.55587V7.3894H19.6557C19.8848 8.24062 20.0005 9.11837 19.9998 9.9999ZM10 19.9997C12.2608 20.0049 14.4557 19.2388 16.2222 17.8279H3.77825C5.54445 19.239 7.73932 20.0052 10 19.9997ZM18.533 15.2225H1.46697C0.969208 14.4107 0.591229 13.5313 0.344727 12.6116H19.6553C19.4089 13.5313 19.0309 14.4107 18.533 15.2225Z" fill="#D80027"/>
<path fill-rule="evenodd" clip-rule="evenodd" d="M4.64273 1.55623H4.63375V1.56248L4.64273 1.55623ZM4.64273 1.55623H5.54701L4.69507 2.16754L5.01733 3.16752L4.16735 2.55621L3.32284 3.16752L3.60056 2.30465C2.85413 2.92939 2.20288 3.65973 1.6674 4.47258H1.96193L1.42287 4.86319L1.17835 5.29287L1.43381 6.08739L0.950617 5.73583L0.61742 6.5116L0.895149 7.38268H1.94982L1.11155 8.00024L1.43381 9.00022L0.583827 8.38891L0.0838367 8.75531C0.0280418 9.16779 0.00011449 9.58357 0.000244593 9.99981H10V8.42268e-06C8.10245 -0.00245955 6.24368 0.537485 4.64273 1.55623ZM5.01538 8.99514L5.0228 9.001H5.01733L5.01538 8.99514ZM4.69468 8.00063L5.01538 8.99514L4.16696 8.38969L3.31698 9.001L3.63924 8.00102L2.78925 7.38971H3.84392L4.16618 6.38973L4.48844 7.38971H5.5431L4.69468 8.00063ZM4.70054 5.08975L5.0228 6.08973L4.17282 5.47842L3.32284 6.08973L3.6451 5.08975L2.79511 4.47844H3.84978L4.17204 3.47846L4.4943 4.47844H5.54896L4.70054 5.08975ZM7.76142 8.38969L8.6114 9.001L8.28915 8.00102L9.14069 7.38971H8.08602L7.76376 6.38973L7.44151 7.38971H6.38684L7.23682 8.00102L6.91456 9.001L7.76142 8.38969ZM8.28915 5.08975L8.6114 6.08973L7.76142 5.47842L6.91144 6.08973L7.2337 5.08975L6.38371 4.47844H7.43838L7.76064 3.47846L8.0829 4.47844H9.13757L8.28915 5.08975ZM8.6114 3.17846L8.28915 2.17848L9.14069 1.56717H8.08602L7.76376 0.567185L7.44151 1.56717H6.38684L7.23682 2.17848L6.91456 3.17846L7.76455 2.56715L8.6114 3.17846Z" fill="#0052B4"/>
</g>
<defs>
<clipPath id="clip0_195_135">
<rect width="20" height="20" fill="white"/>
</clipPath>
</defs>
</svg>
