<svg width="24" height="24" viewBox="0 0 24 24" fill="none" xmlns="http://www.w3.org/2000/svg">
<g clip-path="url(#clip0_36_339)">
<path d="M23.8728 17.5226C23.8437 17.46 23.8166 17.408 23.7915 17.3664C23.3751 16.6165 22.5793 15.6959 21.4047 14.6046L21.3799 14.5796L21.3675 14.5674L21.3549 14.5548H21.3423C20.8093 14.0466 20.4717 13.7049 20.3303 13.53C20.0716 13.1968 20.0137 12.8594 20.1551 12.5177C20.2549 12.2594 20.6301 11.7141 21.2797 10.8809C21.6214 10.4394 21.892 10.0855 22.0918 9.81882C23.5331 7.9027 24.158 6.67828 23.9663 6.14506L23.8919 6.02046C23.8418 5.94544 23.7127 5.87681 23.5047 5.81423C23.2962 5.75177 23.0297 5.74144 22.7047 5.78307L19.106 5.80792C19.0477 5.78727 18.9645 5.78919 18.856 5.81423L18.6935 5.85182L18.6309 5.88312L18.5812 5.92071C18.5395 5.94557 18.4937 5.9893 18.4436 6.05179C18.3939 6.11408 18.3523 6.18717 18.319 6.27045C17.9272 7.27845 17.4817 8.21564 16.9818 9.08196C16.6735 9.59854 16.3904 10.0462 16.1319 10.4253C15.8737 10.8042 15.6571 11.0834 15.4823 11.2624C15.3073 11.4415 15.1493 11.585 15.0074 11.6935C14.8657 11.8019 14.7575 11.8477 14.6827 11.831C14.6076 11.8142 14.5369 11.7976 14.47 11.7809C14.3534 11.7059 14.2597 11.6039 14.189 11.4748C14.118 11.3457 14.0702 11.1832 14.0452 10.9874C14.0204 10.7915 14.0057 10.623 14.0015 10.4813C13.9976 10.3398 13.9994 10.1397 14.0078 9.88145C14.0165 9.6231 14.0204 9.44829 14.0204 9.35664C14.0204 9.04003 14.0265 8.69642 14.0389 8.32571C14.0515 7.955 14.0617 7.66128 14.0703 7.4449C14.0788 7.2283 14.0827 6.99913 14.0827 6.75754C14.0827 6.51594 14.068 6.32648 14.0389 6.18896C14.0099 6.05132 13.966 5.91724 13.9081 5.78906C13.8496 5.65995 13.7641 5.56007 13.6519 5.48917C13.5395 5.41835 13.3997 5.36216 13.2333 5.3204C12.7917 5.22048 12.2295 5.16643 11.5462 5.15803C9.99683 5.1414 9.00126 5.24145 8.55974 5.45805C8.3848 5.54957 8.22649 5.67461 8.08495 5.83278C7.93496 6.01612 7.91404 6.11618 8.02232 6.13263C8.52223 6.20752 8.87613 6.38666 9.08442 6.66987L9.15948 6.81995C9.21786 6.92823 9.27616 7.11993 9.3345 7.39479C9.39275 7.66964 9.43035 7.97369 9.44689 8.30676C9.48847 8.91499 9.48847 9.43564 9.44689 9.86876C9.40518 10.3021 9.36579 10.6394 9.3282 10.881C9.2906 11.1226 9.23441 11.3183 9.15948 11.4682C9.08442 11.6182 9.03448 11.7098 9.00944 11.7431C8.98445 11.7763 8.96362 11.7973 8.94707 11.8055C8.83941 11.847 8.72501 11.8683 8.60963 11.8682C8.4929 11.8682 8.35136 11.8098 8.18478 11.6931C8.01825 11.5764 7.84541 11.4161 7.66628 11.212C7.48714 11.0078 7.28511 10.7225 7.0601 10.356C6.83527 9.98951 6.60199 9.55635 6.3604 9.05653L6.16052 8.69405C6.03556 8.46086 5.86487 8.12132 5.64827 7.67573C5.43153 7.22996 5.23996 6.79877 5.07343 6.38224C5.00686 6.2073 4.90685 6.07412 4.77358 5.98247L4.71104 5.94487C4.66946 5.91161 4.60272 5.87629 4.51116 5.83865C4.41871 5.80087 4.32229 5.77364 4.22374 5.7575L0.799886 5.78236C0.450013 5.78236 0.21262 5.86163 0.0876216 6.01993L0.0375959 6.09482C0.0126049 6.13653 0 6.20314 0 6.29483C0 6.38648 0.024991 6.49896 0.0750167 6.63215C0.574836 7.80685 1.11838 8.93976 1.70564 10.031C2.29291 11.1223 2.80323 12.0014 3.23631 12.6674C3.66947 13.334 4.11099 13.963 4.56087 14.5543C5.01076 15.1458 5.30855 15.5249 5.45425 15.6914C5.60012 15.8583 5.7147 15.983 5.79799 16.0663L6.11045 16.3662C6.31037 16.5661 6.60396 16.8056 6.99135 17.0846C7.37881 17.3638 7.80778 17.6387 8.27845 17.9096C8.7492 18.1802 9.29686 18.4009 9.92172 18.5717C10.5465 18.7426 11.1546 18.8112 11.7461 18.7781H13.1832C13.4746 18.7529 13.6954 18.6613 13.8455 18.5031L13.8952 18.4404C13.9286 18.3907 13.9599 18.3135 13.9888 18.2095C14.0181 18.1054 14.0326 17.9907 14.0326 17.8659C14.024 17.5078 14.0513 17.185 14.1136 16.8976C14.1759 16.6103 14.2469 16.3937 14.3263 16.2478C14.4057 16.1021 14.4952 15.9791 14.5949 15.8794C14.6947 15.7795 14.7659 15.719 14.8077 15.6981C14.8491 15.6772 14.8823 15.6629 14.9073 15.6544C15.1072 15.5878 15.3425 15.6523 15.6135 15.8483C15.8843 16.044 16.1383 16.2858 16.3758 16.573C16.6133 16.8606 16.8985 17.1832 17.2317 17.5413C17.5651 17.8996 17.8566 18.1659 18.1064 18.3411L18.3562 18.4911C18.523 18.5911 18.7396 18.6828 19.0063 18.7661C19.2724 18.8493 19.5056 18.8701 19.7058 18.8285L22.9046 18.7786C23.221 18.7786 23.4672 18.7262 23.6419 18.6223C23.8168 18.5182 23.9208 18.4035 23.9543 18.2787C23.9877 18.1538 23.9895 18.0121 23.9607 17.8536C23.931 17.6956 23.9018 17.5851 23.8728 17.5226Z" fill="white"/>
</g>
<defs>
<clipPath id="clip0_36_339">
<rect width="24" height="24" fill="white"/>
</clipPath>
</defs>
</svg>
