<svg xmlns="http://www.w3.org/2000/svg" version="1.1" xmlns:xlink="http://www.w3.org/1999/xlink" width="60" height="60"><svg width="60" height="60" viewBox="0 0 60 60" fill="none" xmlns="http://www.w3.org/2000/svg">
<rect width="60" height="60" fill="#EF233C"></rect>
<path d="M8.27557 43V16.8182H18.6051C20.5909 16.8182 22.2827 17.1974 23.6804 17.956C25.0781 18.706 26.1435 19.75 26.8764 21.0881C27.6179 22.4176 27.9886 23.9517 27.9886 25.6903C27.9886 27.429 27.6136 28.9631 26.8636 30.2926C26.1136 31.6222 25.027 32.6577 23.6037 33.3991C22.1889 34.1406 20.4759 34.5114 18.4645 34.5114H11.8807V30.0753H17.5696C18.6349 30.0753 19.5128 29.892 20.2031 29.5256C20.902 29.1506 21.4219 28.6349 21.7628 27.9787C22.1122 27.3139 22.2869 26.5511 22.2869 25.6903C22.2869 24.821 22.1122 24.0625 21.7628 23.4148C21.4219 22.7585 20.902 22.2514 20.2031 21.8935C19.5043 21.527 18.6179 21.3438 17.544 21.3438H13.8111V43H8.27557ZM33.0735 43H27.1417L36.18 16.8182H43.3136L52.3391 43H46.4073L39.8491 22.8011H39.6445L33.0735 43ZM32.7028 32.7088H46.7141V37.0298H32.7028V32.7088Z" fill="white"></path>
</svg><style>@media (prefers-color-scheme: light) { :root { filter: none; } }
@media (prefers-color-scheme: dark) { :root { filter: none; } }
</style></svg>